# xmcd CD database file
#
# Track frame offsets:
#	150
#	32217
#	54225
#	82232
#	112882
#	146557
#	178742
#	202345
#
# Disc length: 3026 seconds
#
# Revision: 0
# Processed by: cddbd v1.5.2PL0 Copyright (c) Steve Scherf et al.
# Submitted via: CDex 1.51
#
DISCID=730bd008
DTITLE=Rivers, Sam - Fluid Motion
DYEAR=2002
DGENRE=Jazz
TTITLE0=Fluid Motion
TTITLE1=Poodle Science
TTITLE2=Tephlon
TTITLE3=Whispers
TTITLE4=Pengquam
TTITLE5=Crossdrift
TTITLE6=Following
TTITLE7=Tangents
EXTD=YEAR: 2002
EXTT0=
EXTT1=
EXTT2=
EXTT3=
EXTT4=
EXTT5=
EXTT6=
EXTT7=
PLAYORDER=
